HIERARCHY
ROOT joint_Root
{
  OFFSET 0 0 0
  CHANNELS 6 Xposition Yposition Zposition Zrotation Xrotation Yrotation
  JOINT Hips
  {
    OFFSET 0.847027 93.984 -452.225
    CHANNELS 6 Xposition Yposition Zposition Zrotation Xrotation Yrotation
    JOINT Spine
    {
      OFFSET 15.7357 0 0
      CHANNELS 6 Xposition Yposition Zposition Zrotation Xrotation Yrotation
      JOINT Chest
      {
        OFFSET 8.98455 -0.406207 0
        CHANNELS 6 Xposition Yposition Zposition Zrotation Xrotation Yrotation
        JOINT Neck
        {
          OFFSET 16.3773 0 0
          CHANNELS 6 Xposition Yposition Zposition Zrotation Xrotation Yrotation
          JOINT Head
          {
            OFFSET 6.45672 0 0
            CHANNELS 6 Xposition Yposition Zposition Zrotation Xrotation Yrotation
            End Site
            {
              OFFSET 0 0 0
            }
          }
        }
        JOINT Shoulder_L
        {
          OFFSET 12.9942 -0.242716 4.98039
          CHANNELS 6 Xposition Yposition Zposition Zrotation Xrotation Yrotation
          JOINT UpperArm_L
          {
            OFFSET 5.34809 0 0
            CHANNELS 6 Xposition Yposition Zposition Zrotation Xrotation Yrotation
            JOINT LowerArm_L
            {
              OFFSET 24.3286 1.87007e-05 0
              CHANNELS 6 Xposition Yposition Zposition Zrotation Xrotation Yrotation
              JOINT Hand_L
              {
                OFFSET 22.2916 0 0
                CHANNELS 6 Xposition Yposition Zposition Zrotation Xrotation Yrotation
                End Site
                {
                  OFFSET 0 0 0
                }
              }
            }
          }
        }
        JOINT Shoulder_R
        {
          OFFSET 12.9945 -0.242716 -4.98039
          CHANNELS 6 Xposition Yposition Zposition Zrotation Xrotation Yrotation
          JOINT UpperArm_R
          {
            OFFSET -5.34813 0 0
            CHANNELS 6 Xposition Yposition Zposition Zrotation Xrotation Yrotation
            JOINT LowerArm_R
            {
              OFFSET -24.3289 0.000322201 0
              CHANNELS 6 Xposition Yposition Zposition Zrotation Xrotation Yrotation
              JOINT Hand_R
              {
                OFFSET -22.2915 -0.000108084 0
                CHANNELS 6 Xposition Yposition Zposition Zrotation Xrotation Yrotation
                End Site
                {
                  OFFSET 0 0 0
                }
              }
            }
          }
        }
      }
    }
    JOINT UpperLeg_L
    {
      OFFSET -2.19248 -6.46944 0
      CHANNELS 6 Xposition Yposition Zposition Zrotation Xrotation Yrotation
      JOINT LowerLeg_L
      {
        OFFSET 39.0811 0 -1.23785e-05
        CHANNELS 6 Xposition Yposition Zposition Zrotation Xrotation Yrotation
        JOINT Foot_L
        {
          OFFSET 40.9854 0 -1.26872e-05
          CHANNELS 6 Xposition Yposition Zposition Zrotation Xrotation Yrotation
          JOINT Toes_L
          {
            OFFSET 11.7543 0 0
            CHANNELS 6 Xposition Yposition Zposition Zrotation Xrotation Yrotation
            End Site
            {
              OFFSET 0 0 0
            }
          }
        }
      }
    }
    JOINT UpperLeg_R
    {
      OFFSET -2.19251 6.46944 0
      CHANNELS 6 Xposition Yposition Zposition Zrotation Xrotation Yrotation
      JOINT LowerLeg_R
      {
        OFFSET -39.0811 -0.00228153 -0.0401928
        CHANNELS 6 Xposition Yposition Zposition Zrotation Xrotation Yrotation
        JOINT Foot_R
        {
          OFFSET -40.9854 0 0
          CHANNELS 6 Xposition Yposition Zposition Zrotation Xrotation Yrotation
          JOINT Toes_R
          {
            OFFSET -11.7543 0 0
            CHANNELS 6 Xposition Yposition Zposition Zrotation Xrotation Yrotation
            End Site
            {
              OFFSET 0 0 0
            }
          }
        }
      }
    }
  }
}
MOTION
Frames:	7
Frame Time:	0.0333333
0 0 0 0 0 -0 280.356 91.3138 -53.0965 101.926 -72.2502 12.9282 15.7357 5.1072e-06 -5.51765e-07 124.064 81.9368 -123.077 8.98455 -0.406207 -4.3199e-07 5.5701 8.99224 1.5372 16.3773 -1.3905e-06 -6.99897e-07 1.52217 17.4262 -0.978838 6.45672 -1.25837e-06 -1.02172e-07 3.46586 21.8435 -9.23342 12.9942 -0.242716 4.98039 -90.6832 1.75543 -83.7286 5.34809 -7.22636e-06 -6.2814e-07 -69.7156 21.4056 31.9802 24.3286 1.87007e-05 4.90208e-06 -14.4745 -4.14383 -74.3581 22.2916 -9.88446e-07 4.63217e-06 9.27875 5.6694 -17.2749 12.9945 -0.242716 -4.98039 89.2834 3.26889 -92.63 -5.34813 -1.25947e-06 -3.79883e-06 -53.6902 7.72114 -9.76784 -24.3289 0.000322201 -8.65921e-06 0.758063 -0.107959 -98.1266 -22.2915 -0.000108084 -4.47941e-06 15.0683 5.66314 -16.4244 -2.19248 -6.46944 -1.22534e-07 -178.263 -3.64401 -41.6253 39.0811 -6.73843e-06 -1.23785e-05 0.30584 0.0678951 103.674 40.9854 -6.48686e-06 -1.26872e-05 -7.39252 4.17456 -56.7583 11.7543 -2.30145e-07 3.05095e-06 0.112421 -0.184439 -19.8236 -2.19251 6.46944 -1.45247e-06 171.958 26.4263 -178.167 -39.0811 -0.00228153 -0.0401928 0.0212057 0.0112595 23.3851 -40.9854 7.72618e-06 5.99936e-06 -1.52701 2.79614 -72.2945 -11.7543 -5.6619e-06 -5.58687e-06 0.0727398 -0.0820221 -17.3801 
0 0 0 0 0 -0 277.881 91.0694 -53.1585 105.156 -73.6955 15.2912 15.7357 5.1072e-06 -5.51764e-07 128.23 81.6662 -127.945 8.98455 -0.406207 -4.3199e-07 5.36963 10.2851 0.0873391 16.3773 -1.3905e-06 -6.99897e-07 0.822309 18.119 -1.47059 6.45672 -1.25837e-06 -1.02172e-07 2.5725 22.1575 -9.22815 12.9942 -0.242716 4.98039 -90.3012 0.751883 -83.1685 5.34809 -7.22636e-06 -6.2814e-07 -69.7135 19.9598 36.4011 24.3286 1.87007e-05 4.90208e-06 -16.1526 -3.69168 -77.4653 22.2916 -9.88446e-07 4.63217e-06 8.9115 5.66552 -16.7426 12.9945 -0.242716 -4.98039 89.5045 2.4127 -93.3926 -5.34813 -1.25947e-06 -3.79883e-06 -51.3422 5.90463 -13.6971 -24.3289 0.000322201 -8.65921e-06 0.401169 -0.093017 -103.082 -22.2915 -0.000108084 -4.47941e-06 15.0122 5.65451 -15.469 -2.19248 -6.46944 -1.22533e-07 178.927 -4.3849 -46.2274 39.0811 -6.73843e-06 -1.23785e-05 0.159844 0.0231013 101.05 40.9854 -6.48686e-06 -1.26872e-05 -7.76565 4.409 -58.5925 11.7543 -2.30144e-07 3.05095e-06 0.10931 -0.178985 -19.7291 -2.19251 6.46944 -1.45247e-06 171.174 25.992 -176.573 -39.0811 -0.00228153 -0.0401928 -0.0310466 0.134686 22.1141 -40.9854 7.72618e-06 5.99936e-06 -1.60779 3.81433 -73.347 -11.7543 -5.6619e-06 -5.58687e-06 0.094346 -0.106844 -17.6222 
0 0 0 0 0 -0 275.327 90.7495 -53.2516 107.892 -75.5885 17.6304 15.7357 5.1072e-06 -5.51764e-07 130.338 81.3012 -130.609 8.98455 -0.406207 -4.3199e-07 5.6066 11.2398 -1.09414 16.3773 -1.3905e-06 -6.99897e-07 0.362884 19.1352 -1.99979 6.45672 -1.25837e-06 -1.02172e-07 1.44311 22.8643 -9.53198 12.9942 -0.242716 4.98039 -90.123 0.299074 -82.647 5.34809 -7.22636e-06 -6.2814e-07 -69.4413 17.365 39.3136 24.3286 1.87007e-05 4.90208e-06 -15.7785 -3.03646 -79.3833 22.2916 -9.88446e-07 4.63217e-06 8.87039 5.66259 -16.3633 12.9945 -0.242716 -4.98039 89.6313 1.95694 -94.3286 -5.34813 -1.25947e-06 -3.79883e-06 -49.0583 4.17891 -18.068 -24.3289 0.000322201 -8.65921e-06 0.282121 -0.080333 -105.894 -22.2915 -0.000108084 -4.47941e-06 15.4535 5.64758 -14.7922 -2.19248 -6.46944 -1.22533e-07 176.91 -6.06342 -48.3528 39.0811 -6.73843e-06 -1.23785e-05 0.0504807 -0.00476616 93.7776 40.9854 -6.48686e-06 -1.26872e-05 -8.12232 3.0516 -60.9079 11.7543 -2.30145e-07 3.05095e-06 0.109734 -0.179736 -19.7423 -2.19251 6.46944 -1.45247e-06 170.739 24.7694 -174.398 -39.0811 -0.00228153 -0.0401928 -0.0718323 0.248886 20.3859 -40.9854 7.72618e-06 5.99936e-06 -1.73635 4.47899 -74.2039 -11.7543 -5.6619e-06 -5.58687e-06 0.117396 -0.133553 -17.8814 
0 0 0 0 0 -0 272.724 90.3477 -53.4402 110.194 -77.3013 19.6437 15.7357 5.1072e-06 -5.51765e-07 130.622 81.0554 -131.347 8.98455 -0.406207 -4.3199e-07 5.98234 11.6282 -2.06078 16.3773 -1.3905e-06 -6.99897e-07 0.043442 20.1439 -2.38288 6.45672 -1.25837e-06 -1.02172e-07 0.416637 23.8053 -9.97268 12.9942 -0.242716 4.98039 -90.2026 0.488488 -82.478 5.34809 -7.22636e-06 -6.2814e-07 -69.0298 13.8679 40.6323 24.3286 1.87007e-05 4.90208e-06 -15.2015 -2.58113 -80.5894 22.2916 -9.88446e-07 4.63217e-06 9.39645 5.66294 -16.4047 12.9945 -0.242716 -4.98039 89.6703 1.92753 -95.293 -5.34813 -1.25947e-06 -3.79883e-06 -47.0956 2.7108 -22.3795 -24.3289 0.000322201 -8.65921e-06 0.281457 -0.084415 -106.669 -22.2915 -0.000108084 -4.47941e-06 15.3552 5.64283 -14.3649 -2.19248 -6.46944 -1.22533e-07 175.649 -7.49391 -48.3579 39.0811 -6.73843e-06 -1.23785e-05 -0.00993473 -0.00817656 82.2533 40.9854 -6.48686e-06 -1.26872e-05 -8.04011 2.05597 -63.6917 11.7543 -2.30145e-07 3.05095e-06 0.110379 -0.180853 -19.7616 -2.19251 6.46944 -1.45247e-06 170.803 22.9024 -172.056 -39.0811 -0.00228153 -0.0401928 -0.0856105 0.309968 18.3212 -40.9854 7.72618e-06 5.99936e-06 -1.96154 4.24548 -74.958 -11.7543 -5.6619e-06 -5.58687e-06 0.122733 -0.13977 -17.9418 
0 0 0 0 0 -0 270.102 89.7947 -53.6834 110.952 -78.3533 19.7232 15.7357 5.1072e-06 -5.51764e-07 130.177 81.1817 -131.247 8.98455 -0.406207 -4.3199e-07 5.90764 11.3667 -2.73165 16.3773 -1.3905e-06 -6.99897e-07 -0.0937096 20.8497 -2.52276 6.45672 -1.25837e-06 -1.02172e-07 -0.125939 24.7695 -10.2916 12.9942 -0.242716 4.98039 -90.5246 1.27754 -82.6702 5.34809 -7.22636e-06 -6.2814e-07 -68.5589 10.4701 40.2703 24.3286 1.87007e-05 4.90208e-06 -15.4824 -2.3626 -81.5345 22.2916 -9.88446e-07 4.63217e-06 10.118 5.66267 -16.3788 12.9945 -0.242716 -4.98039 89.6449 2.2581 -96.0595 -5.34813 -1.25947e-06 -3.79883e-06 -45.6428 2.23369 -25.9935 -24.3289 0.000322201 -8.65921e-06 0.75133 -0.209948 -105.658 -22.2915 -0.000108084 -4.47941e-06 15.088 5.64004 -14.129 -2.19248 -6.46944 -1.22534e-07 175.31 -7.68688 -46.7977 39.0811 -6.73843e-06 -1.23785e-05 -0.0306999 0.00268974 66.9035 40.9854 -6.48686e-06 -1.26872e-05 -8.1238 2.96162 -65.6332 11.7543 -2.30145e-07 3.05095e-06 0.108701 -0.177933 -19.7112 -2.19251 6.46944 -1.45247e-06 171.189 21.8115 -169.924 -39.0811 -0.00228153 -0.0401928 -0.0830984 0.334739 16.1797 -40.9854 7.72618e-06 5.99936e-06 -2.11944 4.11199 -75.7768 -11.7543 -5.6619e-06 -5.58687e-06 0.150456 -0.172294 -18.2561 
0 0 0 0 0 -0 267.338 89.0331 -53.9017 109.806 -79.0216 17.4671 15.7357 5.1072e-06 -5.51764e-07 130.525 81.6365 -131.839 8.98455 -0.406207 -4.3199e-07 5.14897 10.8769 -3.12072 16.3773 -1.3905e-06 -6.99897e-07 0.0181511 21.1035 -2.32451 6.45672 -1.25837e-06 -1.02172e-07 -0.0930469 25.393 -10.3144 12.9942 -0.242716 4.98039 -91.0922 2.72115 -83.1198 5.34809 -7.22636e-06 -6.2814e-07 -67.7533 8.20915 38.2992 24.3286 1.87007e-05 4.90208e-06 -15.6595 -2.11783 -82.4897 22.2916 -9.88446e-07 4.63217e-06 10.5633 5.66231 -16.3332 12.9945 -0.242716 -4.98039 89.564 2.99088 -96.6999 -5.34813 -1.25947e-06 -3.79883e-06 -44.9284 3.00517 -27.8534 -24.3289 0.000322201 -8.65921e-06 1.69804 -0.408829 -103.567 -22.2915 -0.000108084 -4.47941e-06 14.7555 5.63942 -14.0791 -2.19248 -6.46944 -1.22533e-07 175.936 -6.88198 -43.7414 39.0811 -6.73843e-06 -1.23785e-05 -0.0188125 0.00533323 48.1375 40.9854 -6.48686e-06 -1.26872e-05 -10.1216 3.73717 -63.7892 11.7543 -2.30145e-07 3.05095e-06 0.110155 -0.180506 -19.7557 -2.19251 6.46944 -1.45247e-06 171.588 21.9171 -167.757 -39.0811 -0.00228153 -0.0401928 -0.071856 0.340724 13.7674 -40.9854 7.72618e-06 5.99936e-06 -2.18485 4.93414 -76.6244 -11.7543 -5.6619e-06 -5.58687e-06 0.221634 -0.257471 -19.0721 
0 0 0 0 0 -0 264.029 87.8933 -53.9028 106.973 -80.3045 14.0124 15.7357 5.1072e-06 -5.51765e-07 132.293 81.9572 -133.688 8.98455 -0.406207 -4.3199e-07 4.33037 10.8491 -3.20502 16.3773 -1.3905e-06 -6.99897e-07 0.171897 21.1193 -2.08604 6.45672 -1.25837e-06 -1.02172e-07 0.251183 25.5274 -9.79533 12.9942 -0.242716 4.98039 -91.9043 4.77374 -83.224 5.34809 -7.22636e-06 -6.2814e-07 -66.4672 8.15225 34.3984 24.3286 1.87007e-05 4.90208e-06 -16.0558 -1.96288 -83.2127 22.2916 -9.88446e-07 4.63217e-06 11.0964 5.66365 -16.4926 12.9945 -0.242716 -4.98039 89.4742 3.96832 -97.4442 -5.34813 -1.25947e-06 -3.79883e-06 -45.1083 4.99642 -27.3444 -24.3289 0.000322201 -8.65921e-06 2.7366 -0.529027 -100.936 -22.2915 -0.000108084 -4.47941e-06 14.7082 5.64092 -14.2016 -2.19248 -6.46944 -1.22533e-07 177.006 -6.66048 -40.2003 39.0811 -6.73843e-06 -1.23785e-05 -0.0116758 0.00354176 31.8705 40.9854 -6.48686e-06 -1.26872e-05 -9.86738 1.4713 -61.1909 11.7543 -2.30145e-07 3.05095e-06 0.10465 -0.170907 -19.589 -2.19251 6.46944 -1.45247e-06 172.226 21.3479 -166.086 -39.0811 -0.00228153 -0.0401928 -0.0211815 0.127754 13.9144 -40.9854 7.72618e-06 5.99936e-06 -0.932516 5.14684 -78.3565 -11.7543 -5.6619e-06 -5.58687e-06 0.363052 -0.43437 -20.7373 
